<svg version="1.1" id="Layer_1" xmlns="http://www.w3.org/2000/svg" xmlns:xlink="http://www.w3.org/1999/xlink" x="0px" y="0px"
	 width="100%" viewBox="0 0 506 484" enable-background="new 0 0 506 484" xml:space="preserve">
<path fill="#FF5D01" opacity="1.000000" stroke="none" 
	d="
M221.000000,0.999998 
	C237.020889,1.000000 253.041794,1.000000 269.215027,1.337872 
	C270.371002,2.116487 271.335968,2.787244 272.384064,2.963487 
	C288.202759,5.623431 303.306244,10.577133 317.778992,17.391756 
	C337.679596,26.762112 356.423431,38.112007 372.507324,53.184437 
	C386.817017,66.594254 401.319641,80.017166 413.929321,94.959846 
	C426.283661,109.599937 436.796448,125.876999 447.329407,141.951981 
	C463.733002,166.986435 476.078461,194.087418 486.078094,222.268555 
	C495.418182,248.590988 502.512665,275.434845 505.098450,303.346832 
	C505.154480,303.951447 506.340912,304.451294 507.000000,305.000000 
	C507.000000,322.687561 507.000000,340.375122 506.617371,358.288452 
	C505.833160,359.192169 505.192535,359.828857 505.067535,360.554443 
	C503.989075,366.813904 503.350250,373.168976 501.932617,379.346893 
	C494.222626,412.945709 474.925964,437.619812 444.040070,452.933136 
	C422.421722,463.651581 399.149658,469.136627 375.494629,472.911652 
	C360.166321,475.357819 344.740967,477.312286 329.298401,478.894501 
	C312.460236,480.619659 295.548798,481.623962 278.680511,483.072906 
	C277.407898,483.182190 276.224762,484.333252 275.000000,485.000000 
	C262.645782,485.000000 250.291550,485.000000 237.691299,484.599426 
	C231.664017,483.466278 225.897934,482.569794 220.098557,482.032806 
	C204.714035,480.608368 189.283310,479.626190 173.931137,477.925049 
	C159.481400,476.323822 145.084473,474.187256 130.707092,472.004517 
	C106.883789,468.387756 84.091537,461.591156 63.030457,449.546173 
	C48.576420,441.279785 36.541351,430.477386 26.927412,416.835663 
	C13.878242,398.319580 7.307901,377.359100 2.937961,355.484436 
	C2.754076,354.563965 1.666545,353.824036 0.999997,353.000000 
	C1.000000,336.979095 1.000000,320.958221 1.383922,304.710083 
	C2.529407,299.710510 3.094208,294.896698 4.088769,290.173431 
	C7.303710,274.905304 10.344409,259.588898 14.061992,244.440750 
	C20.586973,217.853210 30.025091,192.237564 41.916874,167.604462 
	C48.430435,154.112015 55.573177,140.885941 63.103313,127.929802 
	C76.730164,104.483833 92.998024,82.892334 112.095863,63.648045 
	C121.221245,54.452690 131.304977,46.115570 141.524109,38.117306 
	C164.572525,20.077879 190.195969,7.437412 219.429688,2.904387 
	C220.036957,2.810221 220.480225,1.658402 221.000000,0.999998 
M429.038849,118.459190 
	C405.902161,86.292877 379.009033,57.884468 345.795410,35.911743 
	C320.197174,18.977011 292.526764,7.338848 261.737274,3.937495 
	C224.991592,-0.121846 191.381989,9.112800 160.221344,28.165983 
	C125.754128,49.240982 98.984512,78.223564 76.617783,111.435677 
	C39.424911,166.662979 16.242832,227.403870 6.326192,293.196655 
	C2.404000,319.218719 1.624741,345.036987 8.856751,370.919098 
	C19.280577,408.224213 39.668839,436.905396 75.521782,453.364044 
	C97.347229,463.383270 120.514015,468.516785 144.105545,472.041992 
	C152.244019,473.258118 160.416931,474.243713 168.997818,475.391266 
	C168.997818,472.765991 168.997818,470.957214 168.997818,469.148468 
	C168.997833,424.152069 168.990921,379.155701 169.002670,334.159302 
	C169.005661,322.754883 174.801407,317.003571 186.270950,317.001373 
	C231.267334,316.992706 276.263733,316.994751 321.260101,316.999908 
	C333.391846,317.001282 338.998901,322.593353 339.000214,334.690643 
	C339.005096,379.687042 339.002167,424.683411 339.002167,469.679810 
	C339.002167,471.425751 339.002167,473.171722 339.002167,475.265228 
	C371.344086,471.458160 402.792084,467.275574 432.627258,455.255493 
	C470.979218,439.804199 493.860413,411.900848 501.172363,371.175873 
	C506.910706,339.215363 504.924805,307.452332 498.463440,275.898621 
	C486.747345,218.683990 463.047089,166.667145 429.038849,118.459190 
z"/>
<path fill="#000000" opacity="1.000000" stroke="none" 
	d="
M507.000000,304.531342 
	C506.340912,304.451294 505.154480,303.951447 505.098450,303.346832 
	C502.512665,275.434845 495.418182,248.590988 486.078094,222.268555 
	C476.078461,194.087418 463.733002,166.986435 447.329407,141.951981 
	C436.796448,125.876999 426.283661,109.599937 413.929321,94.959846 
	C401.319641,80.017166 386.817017,66.594254 372.507324,53.184437 
	C356.423431,38.112007 337.679596,26.762112 317.778992,17.391756 
	C303.306244,10.577133 288.202759,5.623431 272.384064,2.963487 
	C271.335968,2.787244 270.371002,2.116487 269.683685,1.337872 
	C348.936096,1.000000 427.872192,1.000000 507.000000,1.000000 
	C507.000000,102.020813 507.000000,203.041748 507.000000,304.531342 
z"/>
<path fill="#000000" opacity="1.000000" stroke="none" 
	d="
M220.531342,0.999998 
	C220.480225,1.658402 220.036957,2.810221 219.429688,2.904387 
	C190.195969,7.437412 164.572525,20.077879 141.524109,38.117306 
	C131.304977,46.115570 121.221245,54.452690 112.095863,63.648045 
	C92.998024,82.892334 76.730164,104.483833 63.103313,127.929802 
	C55.573177,140.885941 48.430435,154.112015 41.916874,167.604462 
	C30.025091,192.237564 20.586973,217.853210 14.061992,244.440750 
	C10.344409,259.588898 7.303710,274.905304 4.088769,290.173431 
	C3.094208,294.896698 2.529407,299.710510 1.383922,304.241425 
	C1.000000,203.084518 1.000000,102.169044 1.000000,1.000000 
	C74.020699,1.000000 147.041687,1.000000 220.531342,0.999998 
z"/>
<path fill="#000000" opacity="1.000000" stroke="none" 
	d="
M0.999997,353.468658 
	C1.666545,353.824036 2.754076,354.563965 2.937961,355.484436 
	C7.307901,377.359100 13.878242,398.319580 26.927412,416.835663 
	C36.541351,430.477386 48.576420,441.279785 63.030457,449.546173 
	C84.091537,461.591156 106.883789,468.387756 130.707092,472.004517 
	C145.084473,474.187256 159.481400,476.323822 173.931137,477.925049 
	C189.283310,479.626190 204.714035,480.608368 220.098557,482.032806 
	C225.897934,482.569794 231.664017,483.466278 237.222641,484.599426 
	C158.426941,485.000000 79.853897,485.000000 1.000000,485.000000 
	C1.000000,441.312836 1.000000,397.625092 0.999997,353.468658 
z"/>
<path fill="#000000" opacity="1.000000" stroke="none" 
	d="
M275.468658,485.000000 
	C276.224762,484.333252 277.407898,483.182190 278.680511,483.072906 
	C295.548798,481.623962 312.460236,480.619659 329.298401,478.894501 
	C344.740967,477.312286 360.166321,475.357819 375.494629,472.911652 
	C399.149658,469.136627 422.421722,463.651581 444.040070,452.933136 
	C474.925964,437.619812 494.222626,412.945709 501.932617,379.346893 
	C503.350250,373.168976 503.989075,366.813904 505.067535,360.554443 
	C505.192535,359.828857 505.833160,359.192169 506.617371,358.757141 
	C507.000000,400.948608 507.000000,442.897247 507.000000,485.000000 
	C429.979187,485.000000 352.958252,485.000000 275.468658,485.000000 
z"/>
<path fill="#FFFFFF" opacity="1.000000" stroke="none" 
	d="
M429.256348,118.743713 
	C463.047089,166.667145 486.747345,218.683990 498.463440,275.898621 
	C504.924805,307.452332 506.910706,339.215363 501.172363,371.175873 
	C493.860413,411.900848 470.979218,439.804199 432.627258,455.255493 
	C402.792084,467.275574 371.344086,471.458160 339.002167,475.265228 
	C339.002167,473.171722 339.002167,471.425751 339.002167,469.679810 
	C339.002167,424.683411 339.005096,379.687042 339.000214,334.690643 
	C338.998901,322.593353 333.391846,317.001282 321.260101,316.999908 
	C276.263733,316.994751 231.267334,316.992706 186.270950,317.001373 
	C174.801407,317.003571 169.005661,322.754883 169.002670,334.159302 
	C168.990921,379.155701 168.997833,424.152069 168.997818,469.148468 
	C168.997818,470.957214 168.997818,472.765991 168.997818,475.391266 
	C160.416931,474.243713 152.244019,473.258118 144.105545,472.041992 
	C120.514015,468.516785 97.347229,463.383270 75.521782,453.364044 
	C39.668839,436.905396 19.280577,408.224213 8.856751,370.919098 
	C1.624741,345.036987 2.404000,319.218719 6.326192,293.196655 
	C16.242832,227.403870 39.424911,166.662979 76.617783,111.435677 
	C98.984512,78.223564 125.754128,49.240982 160.221344,28.165983 
	C191.381989,9.112800 224.991592,-0.121846 261.737274,3.937495 
	C292.526764,7.338848 320.197174,18.977011 345.795410,35.911743 
	C379.009033,57.884468 405.902161,86.292877 429.256348,118.743713 
z"/>
</svg>